<?xml version="1.0" standalone="no"?>
<!DOCTYPE svg PUBLIC "-//W3C//DTD SVG 20010904//EN"
 "http://www.w3.org/TR/2001/REC-SVG-20010904/DTD/svg10.dtd">
<svg version="1.0" xmlns="http://www.w3.org/2000/svg"
 width="512.000000pt" height="512.000000pt" viewBox="0 0 512.000000 512.000000"
 preserveAspectRatio="xMidYMid meet">
<metadata>
Created by potrace 1.14, written by Peter Selinger 2001-2017
</metadata>
<g transform="translate(0.000000,512.000000) scale(0.100000,-0.100000)"
fill="#000000" stroke="none">
<path d="M2510 4780 l0 -250 -32 -1 c-18 -1 -41 -1 -50 0 -16 2 -18 -8 -18
-93 l0 -95 -56 2 c-30 2 -58 -2 -62 -8 -11 -17 -8 -485 3 -486 5 -1 33 -2 60
-3 l50 -1 0 -340 c0 -304 -6 -488 -21 -640 -12 -131 -16 -166 -25 -250 -6 -49
-12 -99 -14 -110 -2 -11 -4 -32 -4 -47 l-1 -27 -147 -3 -148 -3 0 -240 0 -240
101 -3 101 -3 -19 -72 c-10 -40 -20 -81 -22 -92 -9 -44 -60 -217 -99 -335 -22
-69 -42 -129 -43 -135 -5 -22 -105 -277 -149 -380 -50 -118 -209 -440 -229
-465 -6 -8 -22 -35 -35 -60 -21 -39 -120 -199 -175 -283 l-18 -27 186 0 187 0
30 62 c126 263 325 453 530 508 72 20 81 21 148 24 274 11 535 -174 702 -496
l50 -98 185 0 c145 0 184 3 178 13 -4 6 -24 37 -45 67 -106 158 -300 513 -372
680 -8 19 -25 58 -37 85 -49 108 -193 500 -205 555 -2 9 -15 56 -29 105 -41
137 -57 194 -61 213 -1 9 -10 43 -18 74 l-15 57 102 3 101 3 0 240 0 240 -90
2 c-50 1 -115 2 -146 2 l-56 1 -8 68 c-4 37 -8 75 -10 85 -2 9 -6 50 -10 90
-3 39 -8 83 -10 97 -4 24 -13 136 -22 255 -2 33 -6 228 -10 434 -4 276 -2 375
6 380 6 4 34 7 61 6 28 -1 51 1 51 4 1 3 2 113 3 244 1 269 5 256 -76 250
l-48 -3 0 95 0 95 -50 0 -50 0 0 250 0 250 -50 0 -50 0 0 -250z m256 -686 l1
-181 -208 -1 -208 0 1 177 c0 97 4 178 9 181 4 3 97 5 206 5 l198 0 1 -181z
m242 -1909 l-1 -175 -36 0 c-57 -1 -782 -1 -823 0 l-38 0 2 175 1 175 447 0
448 0 0 -175z"/>
</g>
</svg>
